<svg width="22" height="20" viewBox="0 0 22 20" fill="none" xmlns="http://www.w3.org/2000/svg">
<path d="M10.8345 0.000244141C4.85127 0.000244141 -0.00012207 4.59399 -0.00012207 10.2547C-0.00012207 14.786 3.10516 18.6252 7.40998 19.9824C7.47036 19.9945 7.53199 20.0005 7.59378 20.0002C7.99524 20.0002 8.15002 19.7279 8.15002 19.4913C8.15002 19.2458 8.14035 18.6029 8.13551 17.7458C7.77712 17.8233 7.41048 17.8637 7.04238 17.8663C4.95768 17.8663 4.48367 16.3708 4.48367 16.3708C3.9903 15.1877 3.27928 14.8708 3.27928 14.8708C2.33609 14.2592 3.27445 14.2413 3.347 14.2413H3.35184C4.44013 14.3306 5.01089 15.3038 5.01089 15.3038C5.55262 16.1788 6.27815 16.4243 6.92629 16.4243C7.35486 16.4164 7.77679 16.3252 8.16453 16.1565C8.26127 15.4958 8.54181 15.0449 8.85137 14.786C6.44744 14.527 3.91775 13.6476 3.91775 9.71899C3.91775 8.59846 4.33856 7.68328 5.03023 6.96899C4.91899 6.71006 4.54655 5.66542 5.13664 4.25471C5.2158 4.23723 5.29715 4.22972 5.37849 4.23239C5.77028 4.23239 6.65543 4.37078 8.11616 5.30828C9.89108 4.84993 11.7682 4.84993 13.5431 5.30828C15.0039 4.37078 15.889 4.23239 16.2808 4.23239C16.3622 4.22972 16.4435 4.23723 16.5227 4.25471C17.1128 5.66542 16.7403 6.71006 16.6291 6.96899C17.3207 7.68774 17.7416 8.60292 17.7416 9.71899C17.7416 13.6565 15.207 14.5226 12.7934 14.777C13.1804 15.094 13.5286 15.719 13.5286 16.6743C13.5286 18.0449 13.5141 19.152 13.5141 19.4868C13.5141 19.7279 13.6641 20.0002 14.0655 20.0002C14.1305 20.0005 14.1954 19.9945 14.259 19.9824C18.5687 18.6252 21.6691 14.7815 21.6691 10.2547C21.6691 4.59399 16.8177 0.000244141 10.8345 0.000244141Z" fill="#F5F5F5"/>
</svg>
