<svg width="23" height="21" viewBox="0 0 23 21" fill="none" xmlns="http://www.w3.org/2000/svg">
<path d="M20.5146 0.79126H2.42998C1.44181 0.79126 0.57843 1.44751 0.57843 2.34885V19.0774C0.57843 19.9837 1.44181 20.7913 2.42998 20.7913H20.5092C21.5027 20.7913 22.2476 19.9783 22.2476 19.0774V2.34885C22.2534 1.44751 21.5027 0.79126 20.5146 0.79126ZM7.29539 17.4622H4.19109V8.55376H7.29539V17.4622ZM5.85062 7.1993H5.82837C4.83488 7.1993 4.19157 6.51671 4.19157 5.66224C4.19157 4.79215 4.85181 4.12563 5.86755 4.12563C6.88329 4.12563 7.50483 4.78724 7.52708 5.66224C7.5266 6.51671 6.88329 7.1993 5.85062 7.1993ZM18.6408 17.4622H15.5365V12.5913C15.5365 11.4243 15.0847 10.627 13.9616 10.627C13.1035 10.627 12.5956 11.1627 12.3698 11.6846C12.2851 11.8721 12.2624 12.1274 12.2624 12.3881V17.4622H9.15807V8.55376H12.2624V9.79349C12.7141 9.19974 13.4198 8.34528 15.062 8.34528C17.0997 8.34528 18.6412 9.58501 18.6412 12.2578L18.6408 17.4622Z" fill="#F5F5F5"/>
</svg>
